<svg width="28" height="27" viewBox="0 0 28 27" fill="none" xmlns="http://www.w3.org/2000/svg">
<path fill-rule="evenodd" clip-rule="evenodd" d="M12.785 14.6755C13.1245 14.5082 16.058 12.2524 16.631 11.8228C16.9982 11.5476 17.4851 11.0142 18.1284 11.153C18.6667 11.2693 19.1 11.9284 18.7609 12.5523C18.5723 12.8995 15.4962 15.1128 15.068 15.434C12.2061 17.5812 12.9203 17.5922 10.023 14.6949C9.72425 14.3962 9.08506 13.9645 9.17186 13.271C9.24539 12.6835 9.86901 12.2327 10.5437 12.532C10.9042 12.692 12.3684 14.3 12.785 14.6755ZM5.29806 4.26335C2.55896 4.26335 1.74486 5.66646 2.70624 8.13343C2.88346 8.5882 3.16763 9.28622 3.16763 9.86332C3.16763 10.1897 1.04932 11.3047 0.463529 12.1505C-1.17005 14.5094 1.96553 15.7186 2.91048 16.6335C3.27523 16.9867 3.25202 17.2719 2.89858 18.1769C2.50434 19.1863 2.02327 20.4001 2.57716 21.4103C2.7394 21.7062 2.91358 21.8889 3.19336 22.0724C4.51042 22.9362 6.83621 22.1835 7.35139 22.6621C7.61671 22.9086 7.83937 23.9136 7.98382 24.3427C8.23787 25.0972 8.53363 26.0627 9.29405 26.5021C10.0408 26.9335 10.4891 26.8064 11.2817 26.4991C11.9336 26.2464 12.1739 26.0269 12.6205 25.6467C12.9034 25.4059 13.6318 24.8537 13.9618 24.8078C14.3377 24.7556 15.4095 25.6484 15.7067 25.872C16.1473 26.2036 16.9717 26.785 17.7154 26.785C19.1736 26.785 19.6681 25.4519 20.0209 24.4036C20.1554 24.004 20.3576 23.069 20.6355 22.7052C21.0479 22.1653 23.531 22.895 24.7781 22.0999C26.0248 21.3051 25.7667 19.8555 25.2985 18.6541C25.1213 18.1993 24.8371 17.5013 24.8371 16.9242C24.8371 16.7198 26.4326 15.6501 26.7069 15.4461C28.4315 14.1635 28.4306 12.6242 26.7069 11.3414C24.4964 9.6965 24.5547 10.332 25.2714 8.16717C25.6392 7.05602 26.1264 5.57258 24.8113 4.71527C23.4678 3.83941 21.1941 4.61755 20.6615 4.11725C20.2163 3.69901 19.992 1.69685 19.3086 0.844108C18.1846 -0.558299 16.9329 0.0311003 15.7678 0.854832C15.4943 1.0482 15.2397 1.26075 14.9773 1.46434C13.8676 2.32503 13.7601 2.01571 12.2981 0.91548C11.8519 0.579732 11.0453 0.0024844 10.2893 0.0024844C9.63493 0.0024844 9.0292 0.376452 8.73963 0.76582C7.9078 1.8842 7.83066 3.47826 7.36925 4.08236C7.21598 4.28304 6.78052 4.27943 6.44444 4.31695C6.11846 4.35332 5.71504 4.26335 5.29806 4.26335Z" fill="#7209B7"/>
</svg>
